<svg version="1.1" id="Layer_1" xmlns="http://www.w3.org/2000/svg" xmlns:xlink="http://www.w3.org/1999/xlink" x="0px" y="0px"
	 width="100%" viewBox="0 0 577 433" enable-background="new 0 0 577 433" xml:space="preserve">
<path fill="#000000" opacity="1.000000" stroke="none" 
	d="
M373.000000,434.000000 
	C248.666702,434.000000 124.833389,434.000000 1.000067,434.000000 
	C1.000044,289.666718 1.000044,145.333466 1.000022,1.000144 
	C193.333237,1.000096 385.666473,1.000096 577.999756,1.000048 
	C577.999878,145.333191 577.999878,289.666382 577.999939,433.999786 
	C509.833344,434.000000 441.666656,434.000000 373.000000,434.000000 
M281.019684,229.986786 
	C281.019684,229.986786 280.973572,229.989166 280.869385,229.485062 
	C280.583893,229.315002 280.298401,229.144958 279.998779,229.001053 
	C279.998779,229.001053 280.022888,228.983536 279.967316,228.355835 
	C279.668793,227.876282 279.370239,227.396729 278.992950,226.288986 
	C279.024872,225.869415 279.056793,225.449829 279.715210,224.712448 
	C281.260529,221.206253 283.551605,219.274185 287.761719,220.027084 
	C288.688354,220.192810 290.363647,218.654602 290.945587,217.517807 
	C291.455200,216.522308 291.401306,214.488907 290.713928,213.817917 
	C289.834564,212.959503 287.600555,212.267014 286.769531,212.794266 
	C283.339905,214.970245 280.220062,217.634476 276.426300,219.935669 
	C276.191315,219.626678 275.956360,219.317673 275.776428,218.532806 
	C275.614380,218.219574 275.357361,218.052017 275.015747,217.988663 
	C275.015747,217.988663 274.973053,217.990723 274.864166,217.484604 
	C274.580933,217.302780 274.297699,217.120972 273.929260,216.349808 
	C273.618896,215.882004 273.308502,215.414215 272.916168,214.440964 
	C272.627777,214.284943 272.339386,214.128922 272.036285,213.949417 
	C272.036285,213.949417 272.011810,213.936325 271.657135,213.286163 
	C268.879303,213.041138 265.876129,210.899628 263.210205,214.503677 
	C263.210205,214.503677 263.412903,214.852463 263.103943,215.536484 
	C263.103943,216.914139 263.103943,218.291794 263.103943,219.982468 
	C265.111877,219.982468 266.556549,219.982468 268.221405,220.555267 
	C268.805511,220.704895 269.389587,220.854538 270.132080,221.498444 
	C270.417725,221.676727 270.703339,221.854996 271.079071,222.518280 
	C271.079071,222.518280 271.230896,222.987640 271.143066,223.496216 
	C271.425812,223.659653 271.708527,223.823090 271.991547,224.013718 
	C271.991547,224.013718 272.018646,224.011505 272.086945,224.617493 
	C272.391083,225.081741 272.695251,225.546005 273.063751,226.497421 
	C273.063751,226.497421 273.172852,226.976562 273.022949,227.498108 
	C273.075989,227.671051 273.129028,227.843994 273.077423,228.498627 
	C273.077423,228.498627 272.996826,228.984940 272.518524,229.133728 
	C272.431061,229.423492 272.343628,229.713272 271.917236,230.657684 
	C269.969208,231.433167 268.021179,232.208633 265.750732,232.355209 
	C264.607788,232.299927 262.478760,232.114594 262.466370,232.208420 
	C262.169922,234.456406 262.100220,236.734299 262.000000,239.000000 
	C262.000000,239.000000 261.991516,239.008545 262.136627,239.501144 
	C262.419891,239.675873 262.703186,239.850601 263.001221,240.000000 
	C263.001221,240.000000 262.980133,240.019424 263.309753,240.704163 
	C264.561188,240.723969 265.812622,240.743774 267.644165,240.864334 
	C268.093781,240.584122 268.543427,240.303909 269.488586,239.865341 
	C269.666595,239.579025 269.844604,239.292709 269.999115,238.996475 
	C269.999115,238.996475 270.008972,239.019562 270.697693,238.966782 
	C271.154602,238.313583 271.611542,237.660385 272.512482,236.833206 
	C272.791107,236.641251 272.956573,236.378128 273.601013,235.827606 
	C273.738800,235.227264 273.876556,234.626923 274.005066,234.004883 
	C274.005066,234.004883 274.026947,234.014175 274.541260,233.894150 
	C274.728149,233.605530 274.915039,233.316925 275.532043,233.003571 
	C275.532043,233.003571 275.962463,233.022644 276.078003,233.696304 
	C276.700562,234.803787 277.323120,235.911255 277.966888,237.023376 
	C277.966888,237.023376 277.979156,237.041245 278.140259,237.520645 
	C278.424957,237.679352 278.709625,237.838074 279.172852,238.472626 
	C279.454651,238.644669 279.736420,238.816711 280.281372,239.639511 
	C281.519958,240.020996 282.758545,240.402481 284.653290,240.917145 
	C285.095673,240.875565 285.538055,240.833969 286.500458,240.883331 
	C286.674347,240.596512 286.848236,240.309692 287.001221,240.000000 
	C287.001221,240.000000 287.025848,240.019836 287.769104,239.904404 
	C288.411285,238.121658 289.053436,236.338913 289.695587,234.556168 
	C288.135773,234.108719 286.575928,233.661255 284.539124,233.064606 
	C284.539124,233.064606 284.045654,232.985367 283.872772,232.501526 
	C283.587830,232.330307 283.302887,232.159103 283.001221,231.998779 
	C283.001221,231.998779 283.012115,231.981567 282.879913,231.483444 
	C282.589996,231.325607 282.300079,231.167786 282.007172,230.990204 
	C282.007172,230.990204 281.987122,230.990265 281.839630,230.516464 
	C281.647461,230.211105 281.371216,230.049652 281.019684,229.986786 
M333.630096,238.715744 
	C335.123291,237.177338 336.291473,235.690521 332.712982,234.274200 
	C330.357666,232.345108 327.365814,230.652817 330.717499,226.745789 
	C330.746063,225.493607 330.774597,224.241409 330.926453,222.344727 
	C330.981934,221.911865 331.037415,221.479004 331.819336,220.569565 
	C331.877655,213.761398 331.982147,206.953033 331.952698,200.145248 
	C331.947266,198.888000 331.808563,197.107025 331.014893,196.491150 
	C329.547974,195.352875 327.419678,194.095871 325.807556,194.359573 
	C323.754639,194.695404 322.954834,196.314636 323.775116,199.156754 
	C325.155334,203.939087 325.854065,209.055939 325.926697,214.045349 
	C326.034454,221.444794 325.227112,228.853714 325.093414,236.263733 
	C325.065979,237.784424 326.249756,240.597809 326.944489,240.619705 
	C328.938568,240.682571 330.968109,239.619598 333.004730,238.999985 
	C333.004730,238.999985 332.998230,238.980637 333.630096,238.715744 
M74.083237,211.828690 
	C74.122978,216.878067 74.162720,221.927429 74.251488,227.687668 
	C74.575470,228.795929 74.899445,229.904190 75.059792,231.627060 
	C75.355194,232.126495 75.650604,232.625916 76.276665,233.813171 
	C76.601608,235.389328 76.639557,237.097763 77.295723,238.521240 
	C84.112206,253.308731 94.315231,264.833069 109.740158,270.947571 
	C123.844086,276.538391 137.977280,276.631775 152.262268,271.045898 
	C173.438416,262.765442 185.431152,246.728333 188.727478,225.087769 
	C191.894379,204.296951 183.739517,186.144104 167.943985,172.895737 
	C149.934952,157.790848 123.386948,154.075043 100.292717,169.178772 
	C87.741570,175.789413 80.775360,186.642807 76.497932,200.108810 
	C76.408089,200.408173 76.318245,200.707535 76.057922,201.476624 
	C76.057922,201.476624 75.935364,201.961044 75.294861,202.331512 
	C75.261055,203.548233 75.227257,204.764954 75.044083,206.423065 
	C75.044083,206.423065 74.962837,206.881897 74.364494,207.149673 
	C74.306221,207.768021 74.247948,208.386353 74.101265,209.672806 
	C74.150711,210.117340 74.200150,210.561890 74.083237,211.828690 
M219.863342,197.078354 
	C219.280792,197.379379 218.643463,197.607056 218.125198,197.994141 
	C215.875473,199.674484 213.262833,201.078186 211.539886,203.198257 
	C209.656586,205.515671 211.884491,206.765732 213.824539,207.774414 
	C214.078842,207.906631 214.070435,208.705368 214.045822,209.188370 
	C213.744537,215.100235 213.474594,221.014648 213.075241,226.920212 
	C212.843658,230.344818 212.056946,233.770096 212.212936,237.163223 
	C212.272324,238.454819 214.182297,240.570297 215.405579,240.688538 
	C217.287537,240.870407 219.565536,240.009766 221.138519,238.858047 
	C221.784760,238.384872 221.117340,235.993744 220.904892,234.495270 
	C220.317856,230.354691 219.186646,226.227402 219.163300,222.089828 
	C219.142578,218.414673 220.461044,214.751099 220.935562,211.050003 
	C221.912933,203.426865 223.926620,202.143936 231.680496,204.957230 
	C233.313919,205.549896 235.410217,206.874588 235.877411,208.319687 
	C237.716309,214.007858 232.631378,219.981476 226.763779,218.738739 
	C224.207336,218.197296 222.360397,218.493500 222.479126,220.546280 
	C222.568329,222.088593 224.847839,224.492752 226.461090,224.780197 
	C232.183731,225.799881 238.213837,221.814178 241.015900,215.481201 
	C243.156845,210.642380 243.234055,204.293884 239.222626,200.209579 
	C233.831024,194.719986 227.284058,195.582047 219.863342,197.078354 
M361.737274,223.626144 
	C364.022644,221.355530 366.721741,219.368042 368.508942,216.756500 
	C372.465973,210.974472 371.762665,203.399185 366.758026,199.475677 
	C359.337860,193.658478 346.949402,195.298447 340.552704,201.352478 
	C339.468262,202.378830 339.195953,206.334061 339.502869,206.451996 
	C344.873779,208.515610 342.929016,212.906525 342.745850,216.474091 
	C342.392914,223.349106 341.510468,230.196884 341.154999,237.071854 
	C341.090912,238.311005 342.487640,240.690903 343.233002,240.700211 
	C345.203644,240.724854 347.447693,240.107071 349.042847,238.980377 
	C349.725189,238.498428 349.274353,236.074005 348.969971,234.608765 
	C348.451569,232.112885 346.973206,229.647461 347.082062,227.222397 
	C347.389740,220.368225 348.273224,213.538345 349.004913,206.706924 
	C349.085327,205.956192 349.471527,205.047867 350.024658,204.570068 
	C352.879456,202.104172 362.523041,204.590836 364.045441,208.111862 
	C366.325531,213.385239 362.264771,218.387634 355.278351,218.911896 
	C349.583832,219.339218 349.583832,219.339203 351.997589,225.276657 
	C354.894196,224.823959 357.933777,224.348923 361.737274,223.626144 
M393.791412,240.933609 
	C395.535400,239.912506 397.404144,239.039383 398.926697,237.755646 
	C399.264374,237.470947 398.706635,235.391037 398.004059,234.728455 
	C394.306061,231.240829 393.741394,225.254959 396.952240,221.348602 
	C398.885376,218.996674 397.896393,214.836395 395.020538,213.616592 
	C387.676544,210.501648 380.722229,212.043015 374.971771,216.864899 
	C369.619324,221.353043 367.850616,227.889496 369.176910,234.774414 
	C369.864685,238.344681 372.406616,240.612671 376.399963,241.007919 
	C381.661804,241.528748 385.502991,239.367661 388.036896,235.404999 
	C389.800293,237.345520 391.408997,239.115753 393.791412,240.933609 
M445.110352,222.721832 
	C446.043213,221.472214 447.931732,220.007401 447.708954,219.018066 
	C447.252747,216.992401 446.095001,214.224319 444.465485,213.518890 
	C437.343597,210.435654 430.731842,212.311050 424.955475,217.151505 
	C419.769165,221.497452 416.980957,230.388199 419.692688,235.798660 
	C420.811127,238.030075 423.694580,240.023453 426.185303,240.786346 
	C431.432068,242.393341 434.973602,238.643234 437.380310,236.488098 
	C440.450012,238.132721 442.958008,240.207428 445.727325,240.651123 
	C447.108185,240.872345 448.967224,238.108612 450.856567,236.482910 
	C443.938568,232.197205 442.821014,229.332626 445.110352,222.721832 
M490.221466,213.354034 
	C483.686188,217.296005 478.675507,225.820007 480.176880,231.161880 
	C481.379242,235.440048 483.169861,239.962219 488.120453,240.842392 
	C494.213013,241.925598 500.032715,240.672241 503.985657,235.289337 
	C504.651306,234.382919 504.079559,232.567810 504.079559,230.364304 
	C495.542938,236.583923 488.027222,235.466141 487.262573,230.058563 
	C491.621796,229.317184 496.023834,228.897263 500.233673,227.763535 
	C504.780426,226.539093 505.835663,222.489395 504.739532,218.702072 
	C504.079437,216.421326 501.582916,213.921509 499.323822,213.057999 
	C496.899384,212.131302 493.786194,213.006592 490.221466,213.354034 
M294.915253,234.473541 
	C297.134888,236.629745 299.041962,240.036255 301.638367,240.685349 
	C307.277405,242.095108 312.817963,240.690399 316.649658,235.661880 
	C317.369446,234.717285 317.502686,233.325760 317.906586,232.140457 
	C316.596130,232.275269 315.083801,232.031952 314.007904,232.606232 
	C306.971466,236.362228 302.227295,235.723633 300.062164,228.289001 
	C305.729797,230.374649 311.206207,230.520401 315.399384,225.972168 
	C317.193024,224.026642 318.893280,220.873825 318.625946,218.495544 
	C318.402161,216.504990 315.507812,214.414444 313.343567,213.131134 
	C309.604279,210.913910 305.694702,212.135941 302.360199,214.309525 
	C295.262634,218.936066 292.799988,225.646652 294.915253,234.473541 
M474.527069,236.916641 
	C475.019867,235.436508 475.512665,233.956390 476.172791,231.973679 
	C472.300323,232.809021 469.497070,233.501999 466.660065,234.004547 
	C462.637665,234.717056 459.930054,232.318405 459.697845,228.937363 
	C459.503174,226.102097 460.643188,222.158966 462.664307,220.502914 
	C464.341187,219.128937 468.567108,219.526749 470.937103,220.659729 
	C474.280884,222.258270 475.806091,220.231995 476.661560,218.414597 
	C477.245972,217.173096 476.316162,214.062439 475.154602,213.413055 
	C473.167023,212.301926 470.380920,211.867233 468.081879,212.199158 
	C459.477417,213.441406 453.164001,221.154129 453.094666,229.939072 
	C453.061188,234.183136 457.161652,240.441193 460.620972,240.840286 
	C465.423676,241.394348 470.196228,241.245636 474.527069,236.916641 
M405.536346,227.030548 
	C405.383636,230.646912 404.926758,234.291306 405.256195,237.863205 
	C405.360443,238.993378 407.726654,240.916122 408.774658,240.744781 
	C410.810364,240.411926 412.708466,238.940262 414.467377,237.668961 
	C414.644073,237.541260 413.416840,235.574677 412.943390,234.419601 
	C412.235352,232.692123 410.980499,230.894028 411.070160,229.184280 
	C411.507751,220.837784 412.488586,212.518997 412.889923,204.171799 
	C413.018433,201.498734 412.461121,198.505997 411.239716,196.171005 
	C410.591095,194.931000 407.817902,194.271164 406.064301,194.374725 
	C405.244385,194.423157 403.616577,197.253098 403.974731,198.226273 
	C407.352417,207.404205 406.683197,216.791306 405.536346,227.030548 
M249.373215,226.071152 
	C248.947769,229.811005 248.205872,233.556839 248.276321,237.287323 
	C248.299545,238.517944 250.414673,240.684464 251.584381,240.691956 
	C253.388565,240.703506 255.328186,239.404449 256.942780,238.277847 
	C257.497864,237.890488 257.703094,235.728592 257.301910,235.439026 
	C252.847931,232.224304 255.458252,227.945236 255.436707,224.107941 
	C255.421158,221.333084 256.067047,218.485596 255.605820,215.810516 
	C255.366562,214.422913 253.334274,212.319046 252.165283,212.353363 
	C250.333633,212.407166 248.259277,213.710098 246.885361,215.082306 
	C246.347702,215.619308 247.351364,217.796112 247.783890,219.185349 
	C248.438126,221.286682 249.206833,223.352386 249.373215,226.071152 
M249.627792,204.915405 
	C252.444244,207.351196 254.651459,205.057404 256.460144,203.542435 
	C257.169373,202.948380 256.848663,199.494476 256.161102,199.181931 
	C254.403320,198.382889 251.923309,197.944733 250.194473,198.593719 
	C247.508026,199.602188 247.660614,202.067047 249.627792,204.915405 
z"/>
<path fill="#952DD7" opacity="1.000000" stroke="none" 
	d="
M75.223419,231.012451 
	C74.899445,229.904190 74.575470,228.795929 74.416435,227.045258 
	C74.733604,225.268738 74.885826,224.134644 75.285248,223.116699 
	C76.017509,223.487381 76.502579,223.741898 77.186646,224.003448 
	C77.385643,224.010468 77.783829,224.016388 77.943039,224.316437 
	C78.338150,225.414642 78.574051,226.212769 78.645645,227.233521 
	C78.597656,228.298523 78.713982,229.140930 78.986229,230.325714 
	C82.275917,237.080399 84.319519,244.397812 88.749718,249.733749 
	C101.574707,265.180756 117.933777,273.241852 138.711029,270.096313 
	C155.707108,267.523224 168.677933,258.748688 177.173920,244.186249 
	C187.040970,227.273758 187.085739,209.518463 178.060043,192.150131 
	C168.603119,173.951950 152.661194,165.425674 132.753754,164.027359 
	C122.302055,163.293213 112.562706,166.802856 102.866188,170.895630 
	C102.043800,170.114716 101.495483,169.490524 100.947159,168.866318 
	C123.386948,154.075043 149.934952,157.790848 167.943985,172.895737 
	C183.739517,186.144104 191.894379,204.296951 188.727478,225.087769 
	C185.431152,246.728333 173.438416,262.765442 152.262268,271.045898 
	C137.977280,276.631775 123.844086,276.538391 109.740158,270.947571 
	C94.315231,264.833069 84.112206,253.308731 77.295723,238.521240 
	C76.639557,237.097763 76.601608,235.389328 76.091675,233.184204 
	C75.678925,232.040985 75.451180,231.526718 75.223419,231.012451 
z"/>
<path fill="#9829DD" opacity="1.000000" stroke="none" 
	d="
M220.264740,196.960754 
	C227.284058,195.582047 233.831024,194.719986 239.222626,200.209579 
	C243.234055,204.293884 243.156845,210.642380 241.015900,215.481201 
	C238.213837,221.814178 232.183731,225.799881 226.461090,224.780197 
	C224.847839,224.492752 222.568329,222.088593 222.479126,220.546280 
	C222.360397,218.493500 224.207336,218.197296 226.763779,218.738739 
	C232.631378,219.981476 237.716309,214.007858 235.877411,208.319687 
	C235.410217,206.874588 233.313919,205.549896 231.680496,204.957230 
	C223.926620,202.143936 221.912933,203.426865 220.935562,211.050003 
	C220.461044,214.751099 219.142578,218.414673 219.163300,222.089828 
	C219.186646,226.227402 220.317856,230.354691 220.904892,234.495270 
	C221.117340,235.993744 221.784760,238.384872 221.138519,238.858047 
	C219.565536,240.009766 217.287537,240.870407 215.405579,240.688538 
	C214.182297,240.570297 212.272324,238.454819 212.212936,237.163223 
	C212.056946,233.770096 212.843658,230.344818 213.075241,226.920212 
	C213.474594,221.014648 213.744537,215.100235 214.045822,209.188370 
	C214.070435,208.705368 214.078842,207.906631 213.824539,207.774414 
	C211.884491,206.765732 209.656586,205.515671 211.539886,203.198257 
	C213.262833,201.078186 215.875473,199.674484 218.125198,197.994141 
	C218.643463,197.607056 219.280792,197.379379 220.264740,196.960754 
z"/>
<path fill="#982ADD" opacity="1.000000" stroke="none" 
	d="
M361.355286,223.750015 
	C357.933777,224.348923 354.894196,224.823959 351.997589,225.276657 
	C349.583832,219.339203 349.583832,219.339218 355.278351,218.911896 
	C362.264771,218.387634 366.325531,213.385239 364.045441,208.111862 
	C362.523041,204.590836 352.879456,202.104172 350.024658,204.570068 
	C349.471527,205.047867 349.085327,205.956192 349.004913,206.706924 
	C348.273224,213.538345 347.389740,220.368225 347.082062,227.222397 
	C346.973206,229.647461 348.451569,232.112885 348.969971,234.608765 
	C349.274353,236.074005 349.725189,238.498428 349.042847,238.980377 
	C347.447693,240.107071 345.203644,240.724854 343.233002,240.700211 
	C342.487640,240.690903 341.090912,238.311005 341.154999,237.071854 
	C341.510468,230.196884 342.392914,223.349106 342.745850,216.474091 
	C342.929016,212.906525 344.873779,208.515610 339.502869,206.451996 
	C339.195953,206.334061 339.468262,202.378830 340.552704,201.352478 
	C346.949402,195.298447 359.337860,193.658478 366.758026,199.475677 
	C371.762665,203.399185 372.465973,210.974472 368.508942,216.756500 
	C366.721741,219.368042 364.022644,221.355530 361.355286,223.750015 
z"/>
<path fill="#982ADD" opacity="1.000000" stroke="none" 
	d="
M393.404541,240.909790 
	C391.408997,239.115753 389.800293,237.345520 388.036896,235.404999 
	C385.502991,239.367661 381.661804,241.528748 376.399963,241.007919 
	C372.406616,240.612671 369.864685,238.344681 369.176910,234.774414 
	C367.850616,227.889496 369.619324,221.353043 374.971771,216.864899 
	C380.722229,212.043015 387.676544,210.501648 395.020538,213.616592 
	C397.896393,214.836395 398.885376,218.996674 396.952240,221.348602 
	C393.741394,225.254959 394.306061,231.240829 398.004059,234.728455 
	C398.706635,235.391037 399.264374,237.470947 398.926697,237.755646 
	C397.404144,239.039383 395.535400,239.912506 393.404541,240.909790 
M388.982086,225.141449 
	C389.233551,223.570709 389.485016,221.999985 389.820435,219.904861 
	C386.812561,219.904861 383.668549,219.274460 380.970398,220.100418 
	C378.733398,220.785233 376.136200,222.841293 375.324951,224.923477 
	C374.502228,227.035156 375.067230,230.257690 376.213562,232.338699 
	C376.837006,233.470474 380.656067,234.236450 381.768585,233.427444 
	C384.471985,231.461655 386.435699,228.478699 388.982086,225.141449 
z"/>
<path fill="#982ADD" opacity="1.000000" stroke="none" 
	d="
M445.072632,223.135696 
	C442.821014,229.332626 443.938568,232.197205 450.856567,236.482910 
	C448.967224,238.108612 447.108185,240.872345 445.727325,240.651123 
	C442.958008,240.207428 440.450012,238.132721 437.380310,236.488098 
	C434.973602,238.643234 431.432068,242.393341 426.185303,240.786346 
	C423.694580,240.023453 420.811127,238.030075 419.692688,235.798660 
	C416.980957,230.388199 419.769165,221.497452 424.955475,217.151505 
	C430.731842,212.311050 437.343597,210.435654 444.465485,213.518890 
	C446.095001,214.224319 447.252747,216.992401 447.708954,219.018066 
	C447.931732,220.007401 446.043213,221.472214 445.072632,223.135696 
M438.256592,226.532593 
	C438.911804,224.579437 439.567017,222.626282 440.470001,219.934494 
	C436.743530,219.934494 433.351257,219.139450 430.666046,220.176071 
	C428.352539,221.069199 426.005981,223.775620 425.219482,226.184845 
	C424.451111,228.538498 423.764496,232.068604 427.894104,233.535019 
	C431.655029,234.870514 433.811554,232.866699 435.951263,230.534546 
	C436.812042,229.596344 437.372528,228.382599 438.256592,226.532593 
z"/>
<path fill="#982ADD" opacity="1.000000" stroke="none" 
	d="
M490.597534,213.224762 
	C493.786194,213.006592 496.899384,212.131302 499.323822,213.057999 
	C501.582916,213.921509 504.079437,216.421326 504.739532,218.702072 
	C505.835663,222.489395 504.780426,226.539093 500.233673,227.763535 
	C496.023834,228.897263 491.621796,229.317184 487.262573,230.058563 
	C488.027222,235.466141 495.542938,236.583923 504.079559,230.364304 
	C504.079559,232.567810 504.651306,234.382919 503.985657,235.289337 
	C500.032715,240.672241 494.213013,241.925598 488.120453,240.842392 
	C483.169861,239.962219 481.379242,235.440048 480.176880,231.161880 
	C478.675507,225.820007 483.686188,217.296005 490.597534,213.224762 
M494.835449,224.698425 
	C495.872467,223.427475 496.909515,222.156509 497.946533,220.885559 
	C496.738861,220.248566 495.268982,218.829453 494.375275,219.129044 
	C492.163696,219.870422 488.543610,221.309708 488.473785,222.626770 
	C488.259857,226.661575 491.989624,224.453140 494.835449,224.698425 
z"/>
<path fill="#9829DD" opacity="1.000000" stroke="none" 
	d="
M294.646179,234.189911 
	C292.799988,225.646652 295.262634,218.936066 302.360199,214.309525 
	C305.694702,212.135941 309.604279,210.913910 313.343567,213.131134 
	C315.507812,214.414444 318.402161,216.504990 318.625946,218.495544 
	C318.893280,220.873825 317.193024,224.026642 315.399384,225.972168 
	C311.206207,230.520401 305.729797,230.374649 300.062164,228.289001 
	C302.227295,235.723633 306.971466,236.362228 314.007904,232.606232 
	C315.083801,232.031952 316.596130,232.275269 317.906586,232.140472 
	C317.502686,233.325760 317.369446,234.717285 316.649658,235.661880 
	C312.817963,240.690399 307.277405,242.095108 301.638367,240.685349 
	C299.041962,240.036255 297.134888,236.629745 294.646179,234.189911 
M311.400635,222.128479 
	C310.604309,221.078568 309.940674,219.281677 308.987915,219.112442 
	C305.493011,218.491699 302.630188,219.742889 300.950348,223.154388 
	C305.608917,225.772888 306.116058,225.751419 311.400635,222.128479 
z"/>
<path fill="#972ADB" opacity="1.000000" stroke="none" 
	d="
M474.241211,237.178070 
	C470.196228,241.245636 465.423676,241.394348 460.620972,240.840286 
	C457.161652,240.441193 453.061188,234.183136 453.094666,229.939072 
	C453.164001,221.154129 459.477417,213.441406 468.081879,212.199158 
	C470.380920,211.867233 473.167023,212.301926 475.154602,213.413055 
	C476.316162,214.062439 477.245972,217.173096 476.661560,218.414597 
	C475.806091,220.231995 474.280884,222.258270 470.937103,220.659729 
	C468.567108,219.526749 464.341187,219.128937 462.664307,220.502914 
	C460.643188,222.158966 459.503174,226.102097 459.697845,228.937363 
	C459.930054,232.318405 462.637665,234.717056 466.660065,234.004547 
	C469.497070,233.501999 472.300323,232.809021 476.172791,231.973679 
	C475.512665,233.956390 475.019867,235.436508 474.241211,237.178070 
z"/>
<path fill="#972ADB" opacity="1.000000" stroke="none" 
	d="
M405.754822,226.620728 
	C406.683197,216.791306 407.352417,207.404205 403.974731,198.226273 
	C403.616577,197.253098 405.244385,194.423157 406.064301,194.374725 
	C407.817902,194.271164 410.591095,194.931000 411.239716,196.171005 
	C412.461121,198.505997 413.018433,201.498734 412.889923,204.171799 
	C412.488586,212.518997 411.507751,220.837784 411.070160,229.184280 
	C410.980499,230.894028 412.235352,232.692123 412.943390,234.419601 
	C413.416840,235.574677 414.644073,237.541260 414.467377,237.668961 
	C412.708466,238.940262 410.810364,240.411926 408.774658,240.744781 
	C407.726654,240.916122 405.360443,238.993378 405.256195,237.863205 
	C404.926758,234.291306 405.383636,230.646912 405.754822,226.620728 
z"/>
<path fill="#9B25E6" opacity="1.000000" stroke="none" 
	d="
M268.993073,240.023682 
	C268.543427,240.303909 268.093781,240.584122 267.237976,240.571304 
	C265.547913,240.191986 264.264008,240.105698 262.980133,240.019424 
	C262.980133,240.019424 263.001221,240.000000 262.885254,239.792938 
	C262.569153,239.313782 262.309906,239.121338 261.991516,239.008545 
	C261.991516,239.008545 262.000000,239.000000 262.008057,238.623749 
	C263.368439,236.493027 264.720795,234.738586 266.073181,232.984131 
	C268.021179,232.208633 269.969208,231.433167 272.248901,230.190704 
	C272.781372,229.512421 272.920105,229.266159 272.996826,228.984940 
	C272.996826,228.984940 273.077423,228.498627 273.229279,228.142426 
	C273.499847,227.472702 273.430420,227.202805 273.172852,226.976562 
	C273.172852,226.976562 273.063751,226.497421 273.000000,225.965088 
	C272.630371,224.959015 272.324524,224.485260 272.018646,224.011505 
	C272.018646,224.011505 271.991547,224.013718 271.901459,223.808197 
	C271.655365,223.362289 271.461884,223.157272 271.230896,222.987640 
	C271.230896,222.987640 271.079071,222.518280 270.909515,222.063812 
	C270.534210,221.344696 270.278778,221.142975 269.973694,221.004181 
	C269.389587,220.854538 268.805511,220.704895 267.924927,219.975281 
	C266.223267,217.881027 264.818085,216.366745 263.412903,214.852448 
	C263.412903,214.852463 263.210205,214.503677 263.776520,214.507309 
	C266.899170,214.319397 269.455475,214.127853 272.011810,213.936325 
	C272.011810,213.936325 272.036285,213.949417 272.156738,214.164154 
	C272.465210,214.634506 272.705536,214.823669 272.998138,214.946411 
	C273.308502,215.414215 273.618896,215.882004 274.087982,216.856689 
	C274.439209,217.630066 274.681305,217.839127 274.973053,217.990723 
	C274.973053,217.990723 275.015747,217.988663 275.085205,218.201645 
	C275.295258,218.658722 275.484161,218.856750 275.721375,219.008682 
	C275.956360,219.317673 276.191315,219.626678 276.917542,220.233002 
	C277.968781,222.030319 278.528748,223.530289 279.088715,225.030258 
	C279.056793,225.449829 279.024872,225.869415 278.865692,226.803314 
	C279.166595,227.872940 279.594727,228.428238 280.022888,228.983536 
	C280.022888,228.983536 279.998779,229.001053 280.123779,229.194122 
	C280.441864,229.646255 280.683472,229.846909 280.973572,229.989166 
	C280.973572,229.989166 281.019684,229.986786 281.133606,230.210205 
	C281.445740,230.683380 281.692261,230.868927 281.987122,230.990265 
	C281.987122,230.990265 282.007172,230.990204 282.135651,231.200058 
	C282.468445,231.659348 282.717773,231.849899 283.012115,231.981567 
	C283.012115,231.981567 283.001221,231.998779 283.136658,232.201416 
	C283.480438,232.663696 283.738281,232.857468 284.045654,232.985367 
	C284.045654,232.985367 284.539124,233.064606 285.051270,233.333252 
	C289.437653,234.969498 287.253937,237.717468 287.025848,240.019836 
	C287.025848,240.019836 287.001221,240.000000 286.812744,240.102127 
	C286.374023,240.361313 286.159424,240.557358 285.980438,240.792389 
	C285.538055,240.833969 285.095673,240.875565 284.121460,240.595779 
	C282.399139,239.845856 281.208679,239.417313 280.018219,238.988770 
	C279.736420,238.816711 279.454651,238.644669 278.957672,238.033356 
	C278.536285,237.343231 278.281830,237.158936 277.979156,237.041245 
	C277.979156,237.041245 277.966888,237.023376 277.975128,236.685181 
	C277.309723,235.238861 276.636108,234.130753 275.962463,233.022644 
	C275.962463,233.022644 275.532043,233.003571 275.100647,233.136642 
	C274.398132,233.468643 274.184021,233.716797 274.026947,234.014175 
	C274.026947,234.014175 274.005066,234.004883 273.789429,234.207108 
	C273.385468,234.954178 273.197174,235.499008 273.008881,236.043854 
	C272.956573,236.378128 272.791107,236.641251 271.983276,236.990753 
	C270.972382,237.772064 270.490662,238.395813 270.008972,239.019562 
	C270.008972,239.019562 269.999115,238.996475 269.790161,239.116119 
	C269.304718,239.438370 269.108673,239.701019 268.993073,240.023682 
z"/>
<path fill="#972ADB" opacity="1.000000" stroke="none" 
	d="
M100.619934,169.022552 
	C101.495483,169.490524 102.043800,170.114716 102.794289,171.246445 
	C94.276764,178.400375 86.375031,185.902893 82.431091,196.343246 
	C80.798119,200.666046 76.254433,204.490891 78.641258,210.145996 
	C78.262787,210.512238 78.107750,210.764206 77.969208,211.293274 
	C77.928040,211.534897 77.781830,212.002777 77.598831,212.295013 
	C77.266991,213.724457 77.118164,214.861694 76.725578,216.114838 
	C76.002449,216.477600 75.523079,216.724426 75.040085,216.582275 
	C74.774162,214.464325 74.511879,212.735382 74.249588,211.006424 
	C74.200150,210.561890 74.150711,210.117340 74.326080,209.111893 
	C74.688210,207.994614 74.825523,207.438263 74.962837,206.881897 
	C74.962837,206.881897 75.044083,206.423065 75.311829,205.979706 
	C75.698166,204.344574 75.816765,203.152817 75.935364,201.961044 
	C75.935364,201.961044 76.057922,201.476624 76.304291,201.082809 
	C76.749977,200.455078 76.886902,200.189056 76.961433,199.890915 
	C80.775360,186.642807 87.741570,175.789413 100.619934,169.022552 
z"/>
<path fill="#972ADB" opacity="1.000000" stroke="none" 
	d="
M249.650070,225.752197 
	C249.206833,223.352386 248.438126,221.286682 247.783890,219.185349 
	C247.351364,217.796112 246.347702,215.619308 246.885361,215.082306 
	C248.259277,213.710098 250.333633,212.407166 252.165283,212.353363 
	C253.334274,212.319046 255.366562,214.422913 255.605820,215.810516 
	C256.067047,218.485596 255.421158,221.333084 255.436707,224.107941 
	C255.458252,227.945236 252.847931,232.224304 257.301910,235.439026 
	C257.703094,235.728592 257.497864,237.890488 256.942780,238.277847 
	C255.328186,239.404449 253.388565,240.703506 251.584381,240.691956 
	C250.414673,240.684464 248.299545,238.517944 248.276321,237.287323 
	C248.205872,233.556839 248.947769,229.811005 249.650070,225.752197 
z"/>
<path fill="#9033CB" opacity="1.000000" stroke="none" 
	d="
M332.983734,238.999115 
	C330.968109,239.619598 328.938568,240.682571 326.944489,240.619705 
	C326.249756,240.597809 325.065979,237.784424 325.093414,236.263733 
	C325.227112,228.853714 326.034454,221.444794 325.926697,214.045349 
	C325.854065,209.055939 325.155334,203.939087 323.775116,199.156754 
	C322.954834,196.314636 323.754639,194.695404 325.807556,194.359573 
	C327.419678,194.095871 329.547974,195.352875 331.014893,196.491150 
	C331.808563,197.107025 331.947266,198.888000 331.952698,200.145248 
	C331.982147,206.953033 331.877655,213.761398 331.210266,220.470276 
	C330.417206,213.735092 330.298462,207.096237 329.995209,200.465820 
	C329.933136,199.108765 329.246979,197.752808 328.669495,196.477371 
	C328.585999,196.292969 326.982819,196.465607 326.948456,196.641876 
	C326.647125,198.186661 326.264740,199.801880 326.441650,201.334412 
	C326.740173,203.920059 327.771484,206.445587 327.884247,209.023087 
	C328.116943,214.344254 327.947662,219.682999 327.715698,225.312256 
	C326.983551,228.189041 326.128967,230.756683 326.044922,233.349335 
	C325.840790,239.645157 326.864777,240.359238 332.983734,238.999115 
z"/>
<path fill="#952DD7" opacity="1.000000" stroke="none" 
	d="
M279.401978,224.871353 
	C278.528748,223.530289 277.968781,222.030319 277.197571,220.324799 
	C280.220062,217.634476 283.339905,214.970245 286.769531,212.794266 
	C287.600555,212.267014 289.834564,212.959503 290.713928,213.817917 
	C291.401306,214.488907 291.455200,216.522308 290.945587,217.517807 
	C290.363647,218.654602 288.688354,220.192810 287.761719,220.027084 
	C283.551605,219.274185 281.260529,221.206253 279.401978,224.871353 
z"/>
<path fill="#9B25E6" opacity="1.000000" stroke="none" 
	d="
M327.943756,225.014511 
	C327.947662,219.682999 328.116943,214.344254 327.884247,209.023087 
	C327.771484,206.445587 326.740173,203.920059 326.441650,201.334412 
	C326.264740,199.801880 326.647125,198.186661 326.948456,196.641876 
	C326.982819,196.465607 328.585999,196.292969 328.669495,196.477371 
	C329.246979,197.752808 329.933136,199.108765 329.995209,200.465820 
	C330.298462,207.096237 330.417206,213.735092 330.847046,220.708557 
	C331.037415,221.479004 330.981934,221.911865 330.702759,222.811707 
	C330.284882,223.496872 330.129395,223.739807 329.753754,224.131577 
	C328.977905,224.508621 328.460815,224.761566 327.943756,225.014511 
z"/>
<path fill="#982ADD" opacity="1.000000" stroke="none" 
	d="
M327.715698,225.312256 
	C328.460815,224.761566 328.977905,224.508621 329.753906,224.490768 
	C329.996216,225.444397 329.979553,226.162933 329.962891,226.881454 
	C327.365814,230.652817 330.357666,232.345108 332.952423,234.874725 
	C333.127319,236.643723 333.062775,237.812180 332.998230,238.980637 
	C332.998230,238.980637 333.004730,238.999985 332.994232,238.999542 
	C326.864777,240.359238 325.840790,239.645157 326.044922,233.349335 
	C326.128967,230.756683 326.983551,228.189041 327.715698,225.312256 
z"/>
<path fill="#9B25E6" opacity="1.000000" stroke="none" 
	d="
M249.357574,204.634613 
	C247.660614,202.067047 247.508026,199.602188 250.194473,198.593719 
	C251.923309,197.944733 254.403320,198.382889 256.161102,199.181931 
	C256.848663,199.494476 257.169373,202.948380 256.460144,203.542435 
	C254.651459,205.057404 252.444244,207.351196 249.357574,204.634613 
z"/>
<path fill="#9033CB" opacity="1.000000" stroke="none" 
	d="
M74.166412,211.417557 
	C74.511879,212.735382 74.774162,214.464325 75.028351,216.986465 
	C75.024734,218.853638 75.029213,219.927643 75.029861,221.334747 
	C75.030045,222.112091 75.034050,222.556320 75.038048,223.000549 
	C74.885826,224.134644 74.733604,225.268738 74.391922,226.689819 
	C74.162720,221.927429 74.122978,216.878067 74.166412,211.417557 
z"/>
<path fill="#952DD7" opacity="1.000000" stroke="none" 
	d="
M287.397461,239.962128 
	C287.253937,237.717468 289.437653,234.969498 285.289795,233.407852 
	C286.575928,233.661255 288.135773,234.108719 289.695587,234.556168 
	C289.053436,236.338913 288.411285,238.121658 287.397461,239.962128 
z"/>
<path fill="#9033CB" opacity="1.000000" stroke="none" 
	d="
M265.911957,232.669678 
	C264.720795,234.738586 263.368439,236.493027 262.002747,238.627136 
	C262.100220,236.734299 262.169922,234.456406 262.466370,232.208420 
	C262.478760,232.114594 264.607788,232.299927 265.911957,232.669678 
z"/>
<path fill="#952DD7" opacity="1.000000" stroke="none" 
	d="
M271.834473,213.611237 
	C269.455475,214.127853 266.899170,214.319397 263.934357,214.381714 
	C265.876129,210.899628 268.879303,213.041138 271.834473,213.611237 
z"/>
<path fill="#952DD7" opacity="1.000000" stroke="none" 
	d="
M263.258423,215.194458 
	C264.818085,216.366745 266.223267,217.881027 267.814819,219.688889 
	C266.556549,219.982468 265.111877,219.982468 263.103943,219.982468 
	C263.103943,218.291794 263.103943,216.914139 263.258423,215.194458 
z"/>
<path fill="#952DD7" opacity="1.000000" stroke="none" 
	d="
M276.020233,233.359467 
	C276.636108,234.130753 277.309723,235.238861 277.964539,236.682861 
	C277.323120,235.911255 276.700562,234.803787 276.020233,233.359467 
z"/>
<path fill="#9033CB" opacity="1.000000" stroke="none" 
	d="
M75.615112,202.146271 
	C75.816765,203.152817 75.698166,204.344574 75.386513,205.759003 
	C75.227257,204.764954 75.261055,203.548233 75.615112,202.146271 
z"/>
<path fill="#952DD7" opacity="1.000000" stroke="none" 
	d="
M280.149780,239.314148 
	C281.208679,239.417313 282.399139,239.845856 283.793365,240.529190 
	C282.758545,240.402481 281.519958,240.020996 280.149780,239.314148 
z"/>
<path fill="#9033CB" opacity="1.000000" stroke="none" 
	d="
M333.314178,238.848190 
	C333.062775,237.812180 333.127319,236.643723 333.108704,235.191467 
	C336.291473,235.690521 335.123291,237.177338 333.314178,238.848190 
z"/>
<path fill="#9033CB" opacity="1.000000" stroke="none" 
	d="
M263.144958,240.361786 
	C264.264008,240.105698 265.547913,240.191986 266.947937,240.520935 
	C265.812622,240.743774 264.561188,240.723969 263.144958,240.361786 
z"/>
<path fill="#952DD7" opacity="1.000000" stroke="none" 
	d="
M279.995117,228.669678 
	C279.594727,228.428238 279.166595,227.872940 278.905090,227.117401 
	C279.370239,227.396729 279.668793,227.876282 279.995117,228.669678 
z"/>
<path fill="#9033CB" opacity="1.000000" stroke="none" 
	d="
M330.340210,226.813629 
	C329.979553,226.162933 329.996216,225.444397 330.012695,224.366684 
	C330.129395,223.739807 330.284882,223.496872 330.641083,223.133972 
	C330.774597,224.241409 330.746063,225.493607 330.340210,226.813629 
z"/>
<path fill="#9033CB" opacity="1.000000" stroke="none" 
	d="
M270.353333,238.993164 
	C270.490662,238.395813 270.972382,237.772064 271.761292,237.077759 
	C271.611542,237.660385 271.154602,238.313583 270.353333,238.993164 
z"/>
<path fill="#952DD7" opacity="1.000000" stroke="none" 
	d="
M273.304932,235.935730 
	C273.197174,235.499008 273.385468,234.954178 273.794067,234.217957 
	C273.876556,234.626923 273.738800,235.227264 273.304932,235.935730 
z"/>
<path fill="#9033CB" opacity="1.000000" stroke="none" 
	d="
M74.663666,207.015778 
	C74.825523,207.438263 74.688210,207.994614 74.370285,208.777832 
	C74.247948,208.386353 74.306221,207.768021 74.663666,207.015778 
z"/>
<path fill="#9033CB" opacity="1.000000" stroke="none" 
	d="
M75.141609,231.319763 
	C75.451180,231.526718 75.678925,232.040985 75.926346,232.840302 
	C75.650604,232.625916 75.355194,232.126495 75.141609,231.319763 
z"/>
<path fill="#952DD7" opacity="1.000000" stroke="none" 
	d="
M272.052795,224.314499 
	C272.324524,224.485260 272.630371,224.959015 272.967834,225.721512 
	C272.695251,225.546005 272.391083,225.081741 272.052795,224.314499 
z"/>
<path fill="#952DD7" opacity="1.000000" stroke="none" 
	d="
M275.748901,218.770752 
	C275.484161,218.856750 275.295258,218.658722 275.080048,218.222382 
	C275.357361,218.052017 275.614380,218.219574 275.748901,218.770752 
z"/>
<path fill="#952DD7" opacity="1.000000" stroke="none" 
	d="
M282.946014,231.732513 
	C282.717773,231.849899 282.468445,231.659348 282.137146,231.209930 
	C282.300079,231.167786 282.589996,231.325607 282.946014,231.732513 
z"/>
<path fill="#9033CB" opacity="1.000000" stroke="none" 
	d="
M76.729683,199.999863 
	C76.886902,200.189056 76.749977,200.455078 76.389526,200.847946 
	C76.318245,200.707535 76.408089,200.408173 76.729683,199.999863 
z"/>
<path fill="#952DD7" opacity="1.000000" stroke="none" 
	d="
M286.240448,240.837860 
	C286.159424,240.557358 286.374023,240.361313 286.823181,240.113556 
	C286.848236,240.309692 286.674347,240.596512 286.240448,240.837860 
z"/>
<path fill="#952DD7" opacity="1.000000" stroke="none" 
	d="
M272.957153,214.693695 
	C272.705536,214.823669 272.465210,214.634506 272.164093,214.175903 
	C272.339386,214.128922 272.627777,214.284943 272.957153,214.693695 
z"/>
<path fill="#9033CB" opacity="1.000000" stroke="none" 
	d="
M269.240845,239.944519 
	C269.108673,239.701019 269.304718,239.438370 269.801910,239.121094 
	C269.844604,239.292709 269.666595,239.579025 269.240845,239.944519 
z"/>
<path fill="#9033CB" opacity="1.000000" stroke="none" 
	d="
M262.064087,239.254852 
	C262.309906,239.121338 262.569153,239.313782 262.877869,239.805603 
	C262.703186,239.850601 262.419891,239.675873 262.064087,239.254852 
z"/>
<path fill="#952DD7" opacity="1.000000" stroke="none" 
	d="
M278.059692,237.280945 
	C278.281830,237.158936 278.536285,237.343231 278.868408,237.795441 
	C278.709625,237.838074 278.424957,237.679352 278.059692,237.280945 
z"/>
<path fill="#952DD7" opacity="1.000000" stroke="none" 
	d="
M270.052887,221.251312 
	C270.278778,221.142975 270.534210,221.344696 270.864471,221.821304 
	C270.703339,221.854996 270.417725,221.676727 270.052887,221.251312 
z"/>
<path fill="#952DD7" opacity="1.000000" stroke="none" 
	d="
M271.186981,223.241928 
	C271.461884,223.157272 271.655365,223.362289 271.901306,223.794617 
	C271.708527,223.823090 271.425812,223.659653 271.186981,223.241928 
z"/>
<path fill="#952DD7" opacity="1.000000" stroke="none" 
	d="
M273.097900,227.237335 
	C273.430420,227.202805 273.499847,227.472702 273.281616,227.901581 
	C273.129028,227.843994 273.075989,227.671051 273.097900,227.237335 
z"/>
<path fill="#952DD7" opacity="1.000000" stroke="none" 
	d="
M272.757690,229.059326 
	C272.920105,229.266159 272.781372,229.512421 272.418396,229.863403 
	C272.343628,229.713272 272.431061,229.423492 272.757690,229.059326 
z"/>
<path fill="#952DD7" opacity="1.000000" stroke="none" 
	d="
M274.284119,233.954163 
	C274.184021,233.716797 274.398132,233.468643 274.885620,233.149017 
	C274.915039,233.316925 274.728149,233.605530 274.284119,233.954163 
z"/>
<path fill="#952DD7" opacity="1.000000" stroke="none" 
	d="
M280.921478,229.737122 
	C280.683472,229.846909 280.441864,229.646255 280.130859,229.181046 
	C280.298401,229.144958 280.583893,229.315002 280.921478,229.737122 
z"/>
<path fill="#952DD7" opacity="1.000000" stroke="none" 
	d="
M283.959229,232.743439 
	C283.738281,232.857468 283.480438,232.663696 283.145020,232.195969 
	C283.302887,232.159103 283.587830,232.330307 283.959229,232.743439 
z"/>
<path fill="#952DD7" opacity="1.000000" stroke="none" 
	d="
M281.913391,230.753357 
	C281.692261,230.868927 281.445740,230.683380 281.129211,230.232880 
	C281.371216,230.049652 281.647461,230.211105 281.913391,230.753357 
z"/>
<path fill="#952DD7" opacity="1.000000" stroke="none" 
	d="
M274.918610,217.737671 
	C274.681305,217.839127 274.439209,217.630066 274.130615,217.151367 
	C274.297699,217.120972 274.580933,217.302780 274.918610,217.737671 
z"/>
<path fill="#000000" opacity="1.000000" stroke="none" 
	d="
M77.781830,212.002777 
	C77.781830,212.002777 77.928040,211.534897 78.217819,211.217102 
	C78.607414,210.598297 78.707222,210.297272 78.807037,209.996231 
	C76.254433,204.490891 80.798119,200.666046 82.431091,196.343246 
	C86.375031,185.902893 94.276764,178.400375 103.068359,171.403168 
	C112.562706,166.802856 122.302055,163.293213 132.753754,164.027359 
	C152.661194,165.425674 168.603119,173.951950 178.060043,192.150131 
	C187.085739,209.518463 187.040970,227.273758 177.173920,244.186249 
	C168.677933,258.748688 155.707108,267.523224 138.711029,270.096313 
	C117.933777,273.241852 101.574707,265.180756 88.749718,249.733749 
	C84.319519,244.397812 82.275917,237.080399 79.050735,229.956482 
	C78.909538,228.500214 78.859741,227.755554 78.809952,227.010910 
	C78.574051,226.212769 78.338150,225.414642 78.016418,223.859497 
	C77.881004,219.402588 77.831421,215.702682 77.781830,212.002777 
M158.005493,242.005798 
	C158.005493,242.005798 158.014008,241.998672 158.634995,241.960114 
	C159.108597,241.649765 159.582199,241.339417 160.602356,240.815201 
	C161.078415,240.218674 161.554474,239.622162 162.590027,238.780304 
	C162.741150,238.198807 162.892273,237.617310 163.001892,236.998779 
	C163.001892,236.998779 163.037216,237.040100 163.617844,236.813919 
	C163.654999,236.221100 163.692169,235.628296 163.910690,234.567413 
	C163.949799,234.404724 163.988892,234.242035 164.767960,233.611328 
	C164.777252,223.750809 164.786560,213.890305 164.918793,203.257965 
	C163.712936,196.529053 160.378601,191.843979 152.662354,190.182144 
	C138.757233,190.120895 124.852112,190.046402 110.946960,190.039505 
	C110.284874,190.039169 109.622490,190.637619 108.476830,191.069229 
	C108.476830,191.069229 108.000778,191.209274 107.504150,191.065430 
	C107.335785,191.102264 107.167419,191.139099 106.406319,191.172791 
	C105.936691,191.519119 105.467064,191.865448 104.485046,192.113953 
	C104.304459,192.394165 104.123871,192.674393 103.483368,193.130249 
	C103.187996,193.324173 103.021637,193.596817 102.311897,194.033218 
	C101.539787,195.013794 100.767677,195.994354 99.997536,196.997482 
	C99.997536,196.997482 99.975037,196.995087 99.409821,197.228607 
	C99.349655,197.811981 99.289490,198.395340 99.058968,199.454056 
	C99.034546,199.620590 99.010132,199.787125 98.277817,200.452499 
	C98.202835,211.128510 98.106239,221.804474 98.093750,232.480560 
	C98.092751,233.338394 98.670815,234.196930 99.059456,235.538849 
	C99.059456,235.538849 99.229202,235.998749 99.173439,236.501205 
	C99.442474,236.687515 99.711510,236.873825 100.062790,237.527451 
	C100.062790,237.527451 100.160248,237.991837 100.054771,238.529266 
	C100.350159,238.712189 100.645538,238.895096 101.235985,239.617661 
	C102.136009,240.427826 103.036041,241.237976 104.206429,242.602127 
	C104.796310,242.655151 105.386200,242.708176 106.586349,243.077454 
	C107.394211,243.293930 108.202072,243.510422 109.495819,243.891205 
	C109.660309,243.844574 109.824799,243.797943 110.664726,243.867615 
	C111.117493,243.821243 111.570267,243.774872 112.941704,243.910141 
	C125.934547,243.925812 138.927505,243.969711 151.920059,243.915726 
	C153.297745,243.910004 154.673080,243.330399 156.542404,242.924225 
	C156.696884,242.860306 156.851364,242.796402 157.481842,242.780533 
	C157.787613,242.614319 157.959213,242.358215 158.005493,242.005798 
z"/>
<path fill="#9033CB" opacity="1.000000" stroke="none" 
	d="
M77.598831,212.295013 
	C77.831421,215.702682 77.881004,219.402588 77.857208,223.559448 
	C77.783829,224.016388 77.385643,224.010468 77.188248,223.605804 
	C76.984863,222.140366 76.978882,221.079620 76.979736,219.616333 
	C76.980827,218.142181 76.975082,217.070557 76.969337,215.998917 
	C77.118164,214.861694 77.266991,213.724457 77.598831,212.295013 
z"/>
<path fill="#972ADB" opacity="1.000000" stroke="none" 
	d="
M76.972893,220.018860 
	C76.978882,221.079620 76.984863,222.140366 76.989258,223.598770 
	C76.502579,223.741898 76.017509,223.487381 75.285248,223.116699 
	C75.034050,222.556320 75.030045,222.112091 75.274826,221.217270 
	C76.006706,220.517410 76.489799,220.268127 76.972893,220.018860 
z"/>
<path fill="#9033CB" opacity="1.000000" stroke="none" 
	d="
M78.645645,227.233521 
	C78.859741,227.755554 78.909538,228.500214 78.894821,229.614105 
	C78.713982,229.140930 78.597656,228.298523 78.645645,227.233521 
z"/>
<path fill="#000000" opacity="1.000000" stroke="none" 
	d="
M388.839722,225.523468 
	C386.435699,228.478699 384.471985,231.461655 381.768585,233.427444 
	C380.656067,234.236450 376.837006,233.470474 376.213562,232.338699 
	C375.067230,230.257690 374.502228,227.035156 375.324951,224.923477 
	C376.136200,222.841293 378.733398,220.785233 380.970398,220.100418 
	C383.668549,219.274460 386.812561,219.904861 389.820435,219.904861 
	C389.485016,221.999985 389.233551,223.570709 388.839722,225.523468 
z"/>
<path fill="#000000" opacity="1.000000" stroke="none" 
	d="
M438.163147,226.913437 
	C437.372528,228.382599 436.812042,229.596344 435.951263,230.534546 
	C433.811554,232.866699 431.655029,234.870514 427.894104,233.535019 
	C423.764496,232.068604 424.451111,228.538498 425.219482,226.184845 
	C426.005981,223.775620 428.352539,221.069199 430.666046,220.176071 
	C433.351257,219.139450 436.743530,219.934494 440.470001,219.934494 
	C439.567017,222.626282 438.911804,224.579437 438.163147,226.913437 
z"/>
<path fill="#000000" opacity="1.000000" stroke="none" 
	d="
M494.448364,224.840286 
	C491.989624,224.453140 488.259857,226.661575 488.473785,222.626770 
	C488.543610,221.309708 492.163696,219.870422 494.375275,219.129044 
	C495.268982,218.829453 496.738861,220.248566 497.946533,220.885559 
	C496.909515,222.156509 495.872467,223.427475 494.448364,224.840286 
z"/>
<path fill="#000000" opacity="1.000000" stroke="none" 
	d="
M311.234070,222.491272 
	C306.116058,225.751419 305.608917,225.772888 300.950348,223.154388 
	C302.630188,219.742889 305.493011,218.491699 308.987915,219.112442 
	C309.940674,219.281677 310.604309,221.078568 311.234070,222.491272 
z"/>
<path fill="#952DD7" opacity="1.000000" stroke="none" 
	d="
M76.979736,219.616333 
	C76.489799,220.268127 76.006706,220.517410 75.278656,220.884155 
	C75.029213,219.927643 75.024734,218.853638 75.031982,217.375458 
	C75.523079,216.724426 76.002449,216.477600 76.725578,216.114838 
	C76.975082,217.070557 76.980827,218.142181 76.979736,219.616333 
z"/>
<path fill="#9033CB" opacity="1.000000" stroke="none" 
	d="
M78.641266,210.145996 
	C78.707222,210.297272 78.607414,210.598297 78.258987,210.975494 
	C78.107750,210.764206 78.262787,210.512238 78.641266,210.145996 
z"/>
<path fill="#982ADD" opacity="1.000000" stroke="none" 
	d="
M103.936073,242.048141 
	C103.036041,241.237976 102.136009,240.427826 100.998207,239.141205 
	C100.598610,238.406326 100.398552,238.182022 100.160248,237.991837 
	C100.160248,237.991837 100.062790,237.527451 99.935699,237.091431 
	C99.657913,236.399078 99.464775,236.180191 99.229202,235.998749 
	C99.229202,235.998749 99.059456,235.538849 99.032974,234.833679 
	C99.006500,230.516693 99.006500,226.904892 99.006500,223.293091 
	C99.452667,223.281219 99.898834,223.269348 100.344994,223.257462 
	C100.837486,226.510559 101.329979,229.763672 101.973793,233.331360 
	C104.420067,235.831055 106.715019,238.016129 109.369080,240.400757 
	C121.866081,240.739624 134.003769,240.922989 146.142029,240.979172 
	C148.421951,240.989716 150.704208,240.492432 153.314102,240.062317 
	C155.841415,237.926865 158.040039,235.958588 160.410828,233.772369 
	C160.716965,233.022171 160.850952,232.489899 161.020721,231.711472 
	C161.056503,231.465317 161.198959,230.988647 161.371994,230.733032 
	C161.425110,229.322021 161.305176,228.166626 161.055984,226.715454 
	C159.945068,225.297989 158.963425,224.176300 158.076447,222.738647 
	C158.840225,221.923004 159.509323,221.423294 160.523026,220.679504 
	C160.925446,215.464828 161.171371,210.487518 160.994827,205.525253 
	C160.758881,198.893723 157.637329,195.403336 151.678406,194.601898 
	C149.564972,194.150482 147.730530,193.968933 145.688995,193.628113 
	C144.686295,193.577438 143.890686,193.686050 142.695251,193.829895 
	C141.494537,193.834351 140.693649,193.803574 139.684647,193.615707 
	C138.680283,193.568802 137.884048,193.678986 136.645645,193.829575 
	C134.428513,193.845062 132.653549,193.820145 130.536331,193.600189 
	C125.833183,193.537552 121.472275,193.669922 116.743240,193.830643 
	C115.883659,193.838516 115.392197,193.818054 114.694534,193.636490 
	C113.692902,193.582428 112.897469,193.689468 111.826019,193.865631 
	C111.094543,194.243256 110.639084,194.551758 109.800171,194.925415 
	C107.967270,195.669403 106.517815,196.348221 104.801277,197.013931 
	C104.355927,197.000336 104.177658,196.999847 103.999695,196.999680 
	C104.000000,197.000000 104.002487,197.002258 103.946587,196.683975 
	C103.588554,195.559860 103.286423,194.754028 102.984291,193.948196 
	C103.021637,193.596817 103.187996,193.324173 103.915329,192.960327 
	C104.602814,192.641129 104.819527,192.448242 104.997437,192.211761 
	C105.467064,191.865448 105.936691,191.519119 106.809723,191.276611 
	C107.213135,191.380417 107.634102,191.437805 107.634102,191.437805 
	C107.634102,191.437805 108.000778,191.209274 108.000778,191.209274 
	C108.000778,191.209274 108.476830,191.069229 109.128212,191.045334 
	C110.874825,191.053604 111.970047,191.085770 113.410469,191.327637 
	C121.882179,191.686737 130.008774,191.942261 138.135193,191.936951 
	C141.733109,191.934601 145.330704,191.404327 149.344559,191.076294 
	C150.873230,191.008560 151.985779,190.978226 153.098328,190.947891 
	C160.378601,191.843979 163.712936,196.529053 164.665451,204.004181 
	C164.284073,214.526703 164.156036,224.303024 164.027985,234.079346 
	C163.988892,234.242035 163.949799,234.404724 163.654236,235.016663 
	C163.277588,235.990631 163.157410,236.515366 163.037216,237.040100 
	C163.037216,237.040100 163.001892,236.998779 162.759430,237.058929 
	C162.354813,237.754593 162.192688,238.390121 162.030548,239.025650 
	C161.554474,239.622162 161.078415,240.218674 160.038055,240.957336 
	C158.987183,241.399216 158.500595,241.698959 158.014008,241.998688 
	C158.014008,241.998672 158.005493,242.005798 157.809479,242.088867 
	C157.370605,242.315063 157.168060,242.501907 157.005859,242.732483 
	C156.851364,242.796402 156.696884,242.860306 155.824097,242.958038 
	C144.011871,242.987473 132.917526,242.927078 121.824295,243.013245 
	C118.555557,243.038635 115.290031,243.478546 112.023033,243.728485 
	C111.570267,243.774872 111.117493,243.821243 110.221321,243.711746 
	C109.485619,243.430466 109.229630,243.487473 109.009941,243.726898 
	C108.202072,243.510422 107.394211,243.293930 106.062004,242.748230 
	C105.003799,242.295380 104.469933,242.171753 103.936073,242.048141 
z"/>
<path fill="#982ADD" opacity="1.000000" stroke="none" 
	d="
M98.985710,199.953659 
	C99.010132,199.787125 99.034546,199.620590 99.313942,199.003784 
	C99.704292,198.034027 99.839661,197.514557 99.975037,196.995087 
	C99.975037,196.995087 99.997536,196.997482 100.396751,196.996597 
	C101.864807,196.997894 102.933647,197.000076 104.002487,197.002258 
	C104.002487,197.002258 104.000000,197.000000 104.002571,197.276581 
	C104.018852,197.737228 104.032570,197.921310 103.953033,198.382355 
	C103.501457,199.109543 103.143127,199.559753 102.613708,200.228821 
	C102.305061,200.979477 102.167503,201.511292 102.017914,202.018585 
	C102.005882,201.994080 102.057060,202.013077 101.815880,202.291962 
	C101.652199,206.389847 101.729698,210.208862 101.963913,214.311691 
	C102.737648,214.685272 103.354668,214.775024 103.988289,215.240997 
	C104.026291,216.118561 104.047691,216.619904 104.026779,217.455292 
	C103.247337,218.516022 102.510193,219.242737 101.457550,220.016708 
	C100.435204,218.954041 99.162582,217.866669 99.117256,216.730362 
	C98.894463,211.145264 98.997643,205.547165 98.985710,199.953659 
z"/>
<path fill="#912ECF" opacity="1.000000" stroke="none" 
	d="
M98.631760,200.203079 
	C98.997643,205.547165 98.894463,211.145264 99.117256,216.730362 
	C99.162582,217.866669 100.435204,218.954041 101.526764,220.478394 
	C101.881813,224.934128 101.852142,228.975449 101.822472,233.016769 
	C101.329979,229.763672 100.837486,226.510559 100.344994,223.257462 
	C99.898834,223.269348 99.452667,223.281219 99.006500,223.293091 
	C99.006500,226.904892 99.006500,230.516693 98.993141,234.591812 
	C98.670815,234.196930 98.092751,233.338394 98.093750,232.480560 
	C98.106239,221.804474 98.202835,211.128510 98.631760,200.203079 
z"/>
<path fill="#912ECF" opacity="1.000000" stroke="none" 
	d="
M112.482368,243.819305 
	C115.290031,243.478546 118.555557,243.038635 121.824295,243.013245 
	C132.917526,242.927078 144.011871,242.987473 155.577667,243.004456 
	C154.673080,243.330399 153.297745,243.910004 151.920059,243.915726 
	C138.927505,243.969711 125.934547,243.925812 112.482368,243.819305 
z"/>
<path fill="#C083E4" opacity="1.000000" stroke="none" 
	d="
M113.065277,191.117935 
	C111.970047,191.085770 110.874825,191.053604 109.369919,190.989334 
	C109.622490,190.637619 110.284874,190.039169 110.946960,190.039505 
	C124.852112,190.046402 138.757233,190.120895 152.880341,190.565018 
	C151.985779,190.978226 150.873230,191.008560 148.884964,191.035751 
	C136.361252,191.061050 124.713264,191.089493 113.065277,191.117935 
z"/>
<path fill="#912ECF" opacity="1.000000" stroke="none" 
	d="
M164.397980,233.845337 
	C164.156036,224.303024 164.284073,214.526703 164.603973,204.390076 
	C164.786560,213.890305 164.777252,223.750809 164.397980,233.845337 
z"/>
<path fill="#912ECF" opacity="1.000000" stroke="none" 
	d="
M103.946587,196.683975 
	C102.933647,197.000076 101.864807,196.997894 100.395767,196.985321 
	C100.767677,195.994354 101.539787,195.013794 102.648094,193.990707 
	C103.286423,194.754028 103.588554,195.559860 103.946587,196.683975 
z"/>
<path fill="#912ECF" opacity="1.000000" stroke="none" 
	d="
M162.310303,238.902985 
	C162.192688,238.390121 162.354813,237.754593 162.780167,237.077438 
	C162.892273,237.617310 162.741150,238.198807 162.310303,238.902985 
z"/>
<path fill="#912ECF" opacity="1.000000" stroke="none" 
	d="
M163.327530,236.927002 
	C163.157410,236.515366 163.277588,235.990631 163.563553,235.250687 
	C163.692169,235.628296 163.654999,236.221100 163.327530,236.927002 
z"/>
<path fill="#912ECF" opacity="1.000000" stroke="none" 
	d="
M158.324509,241.979401 
	C158.500595,241.698959 158.987183,241.399216 159.764801,241.064285 
	C159.582199,241.339417 159.108597,241.649765 158.324509,241.979401 
z"/>
<path fill="#912ECF" opacity="1.000000" stroke="none" 
	d="
M104.071251,242.325134 
	C104.469933,242.171753 105.003799,242.295380 105.756866,242.590103 
	C105.386200,242.708176 104.796310,242.655151 104.071251,242.325134 
z"/>
<path fill="#912ECF" opacity="1.000000" stroke="none" 
	d="
M99.692429,197.111847 
	C99.839661,197.514557 99.704292,198.034027 99.399124,198.766113 
	C99.289490,198.395340 99.349655,197.811981 99.692429,197.111847 
z"/>
<path fill="#912ECF" opacity="1.000000" stroke="none" 
	d="
M109.252884,243.809052 
	C109.229630,243.487473 109.485619,243.430466 109.883598,243.653595 
	C109.824799,243.797943 109.660309,243.844574 109.252884,243.809052 
z"/>
<path fill="#912ECF" opacity="1.000000" stroke="none" 
	d="
M157.243851,242.756500 
	C157.168060,242.501907 157.370605,242.315063 157.805069,242.092072 
	C157.959213,242.358215 157.787613,242.614319 157.243851,242.756500 
z"/>
<path fill="#912ECF" opacity="1.000000" stroke="none" 
	d="
M107.752464,191.137360 
	C108.000778,191.209274 107.634102,191.437805 107.634102,191.437805 
	C107.634102,191.437805 107.213135,191.380417 107.106094,191.278168 
	C107.167419,191.139099 107.335785,191.102264 107.752464,191.137360 
z"/>
<path fill="#912ECF" opacity="1.000000" stroke="none" 
	d="
M100.107513,238.260559 
	C100.398552,238.182022 100.598610,238.406326 100.850677,238.871368 
	C100.645538,238.895096 100.350159,238.712189 100.107513,238.260559 
z"/>
<path fill="#912ECF" opacity="1.000000" stroke="none" 
	d="
M99.201324,236.249969 
	C99.464775,236.180191 99.657913,236.399078 99.894585,236.857773 
	C99.711510,236.873825 99.442474,236.687515 99.201324,236.249969 
z"/>
<path fill="#912ECF" opacity="1.000000" stroke="none" 
	d="
M104.741241,192.162857 
	C104.819527,192.448242 104.602814,192.641129 104.145294,192.872498 
	C104.123871,192.674393 104.304459,192.394165 104.741241,192.162857 
z"/>
<path fill="#000000" opacity="1.000000" stroke="none" 
	d="
M101.973793,233.331360 
	C101.852142,228.975449 101.881813,224.934128 101.842262,220.431122 
	C102.510193,219.242737 103.247337,218.516022 104.388290,217.398560 
	C109.926216,214.021957 115.060326,211.036087 120.645187,207.788086 
	C125.784142,213.032593 131.171799,218.177765 136.122208,223.713913 
	C139.148987,227.098816 141.525940,227.421478 145.141983,224.521667 
	C148.886063,221.519196 153.080017,217.902374 157.981781,223.054596 
	C158.963425,224.176300 159.945068,225.297989 160.980713,227.109161 
	C161.089478,228.861969 161.144226,229.925308 161.198975,230.988647 
	C161.198959,230.988647 161.056503,231.465317 160.744659,231.846924 
	C160.368088,232.815811 160.303375,233.403061 160.238663,233.990326 
	C158.040039,235.958588 155.841415,237.926865 152.851227,239.989532 
	C137.709763,240.123047 123.359871,240.162140 109.009972,240.201218 
	C106.715019,238.016129 104.420067,235.831055 101.973793,233.331360 
z"/>
<path fill="#000000" opacity="1.000000" stroke="none" 
	d="
M103.971687,214.864777 
	C103.354668,214.775024 102.737648,214.685272 102.029411,213.852859 
	C101.977821,209.411163 102.017441,205.712112 102.057060,202.013077 
	C102.057060,202.013077 102.005882,201.994080 102.308167,201.898727 
	C102.668564,201.205566 102.726677,200.607758 102.784790,200.009949 
	C103.143127,199.559753 103.501457,199.109543 104.197525,198.282562 
	C104.712967,197.612900 104.890663,197.319977 105.068359,197.027054 
	C106.517815,196.348221 107.967270,195.669403 110.246201,195.001862 
	C124.702927,194.966034 138.330170,194.918900 151.957413,194.871765 
	C157.637329,195.403336 160.758881,198.893723 160.994827,205.525253 
	C161.171371,210.487518 160.925446,215.464828 160.365173,220.366150 
	C157.653397,218.642410 155.444046,216.987946 152.784195,214.996140 
	C149.024277,217.623749 144.976456,220.452560 140.736359,223.415741 
	C135.171661,217.774063 129.885941,212.539215 124.754066,207.157654 
	C122.349998,204.636642 119.622894,204.080627 116.857269,205.831375 
	C112.430061,208.633987 108.253944,211.833221 103.971687,214.864777 
M135.021301,207.616959 
	C134.824402,214.392593 140.491028,216.351334 144.701233,215.851608 
	C149.422348,215.291260 152.760544,209.968277 150.743881,205.306366 
	C149.757355,203.025833 146.646576,200.879074 144.098633,200.225296 
	C139.058136,198.931976 136.190338,202.018799 135.021301,207.616959 
z"/>
<path fill="#912ECF" opacity="1.000000" stroke="none" 
	d="
M103.988289,215.240997 
	C108.253944,211.833221 112.430061,208.633987 116.857269,205.831375 
	C119.622894,204.080627 122.349998,204.636642 124.754066,207.157654 
	C129.885941,212.539215 135.171661,217.774063 140.736359,223.415741 
	C144.976456,220.452560 149.024277,217.623749 152.784195,214.996140 
	C155.444046,216.987946 157.653397,218.642410 160.020599,220.610229 
	C159.509323,221.423294 158.840225,221.923004 158.076447,222.738647 
	C153.080017,217.902374 148.886063,221.519196 145.141983,224.521667 
	C141.525940,227.421478 139.148987,227.098816 136.122208,223.713913 
	C131.171799,218.177765 125.784142,213.032593 120.645187,207.788086 
	C115.060326,211.036087 109.926216,214.021957 104.430588,217.064545 
	C104.047691,216.619904 104.026291,216.118561 103.988289,215.240997 
z"/>
<path fill="#912ECF" opacity="1.000000" stroke="none" 
	d="
M109.369080,240.400757 
	C123.359871,240.162140 137.709763,240.123047 152.522522,240.156723 
	C150.704208,240.492432 148.421951,240.989716 146.142029,240.979172 
	C134.003769,240.922989 121.866081,240.739624 109.369080,240.400757 
z"/>
<path fill="#C083E4" opacity="1.000000" stroke="none" 
	d="
M151.678406,194.601898 
	C138.330170,194.918900 124.702927,194.966034 110.629654,194.936707 
	C110.639084,194.551758 111.094543,194.243256 112.174232,193.906555 
	C113.499222,193.851410 114.199974,193.824509 114.900734,193.797592 
	C115.392197,193.818054 115.883659,193.838516 117.194901,193.873184 
	C122.302643,193.856659 126.590607,193.825958 130.878571,193.795227 
	C132.653549,193.820145 134.428513,193.845062 136.995026,193.873169 
	C138.488632,193.841873 139.190689,193.807343 139.892761,193.772812 
	C140.693649,193.803574 141.494537,193.834351 143.043900,193.872894 
	C144.493607,193.849579 145.194855,193.818481 145.896088,193.787384 
	C147.730530,193.968933 149.564972,194.150482 151.678406,194.601898 
z"/>
<path fill="#912ECF" opacity="1.000000" stroke="none" 
	d="
M113.410469,191.327637 
	C124.713264,191.089493 136.361252,191.061050 148.468842,191.073151 
	C145.330704,191.404327 141.733109,191.934601 138.135193,191.936951 
	C130.008774,191.942261 121.882179,191.686737 113.410469,191.327637 
z"/>
<path fill="#952DD7" opacity="1.000000" stroke="none" 
	d="
M130.536331,193.600204 
	C126.590607,193.825958 122.302643,193.856659 117.563019,193.844833 
	C121.472275,193.669922 125.833183,193.537552 130.536331,193.600204 
z"/>
<path fill="#912ECF" opacity="1.000000" stroke="none" 
	d="
M161.372009,230.733032 
	C161.144226,229.925308 161.089478,228.861969 161.109985,227.404922 
	C161.305176,228.166626 161.425110,229.322021 161.372009,230.733032 
z"/>
<path fill="#952DD7" opacity="1.000000" stroke="none" 
	d="
M145.688995,193.628098 
	C145.194855,193.818481 144.493607,193.849579 143.443726,193.837677 
	C143.890686,193.686050 144.686295,193.577438 145.688995,193.628098 
z"/>
<path fill="#952DD7" opacity="1.000000" stroke="none" 
	d="
M114.694534,193.636490 
	C114.199974,193.824509 113.499222,193.851410 112.450241,193.837418 
	C112.897469,193.689468 113.692902,193.582428 114.694534,193.636490 
z"/>
<path fill="#952DD7" opacity="1.000000" stroke="none" 
	d="
M139.684647,193.615707 
	C139.190689,193.807343 138.488632,193.841873 137.437180,193.832794 
	C137.884048,193.678986 138.680283,193.568802 139.684647,193.615707 
z"/>
<path fill="#912ECF" opacity="1.000000" stroke="none" 
	d="
M160.410828,233.772385 
	C160.303375,233.403061 160.368088,232.815811 160.708862,232.093079 
	C160.850952,232.489899 160.716965,233.022171 160.410828,233.772385 
z"/>
<path fill="#912ECF" opacity="1.000000" stroke="none" 
	d="
M104.801285,197.013931 
	C104.890663,197.319977 104.712967,197.612900 104.290771,198.005600 
	C104.032570,197.921310 104.018852,197.737228 104.002258,197.276245 
	C104.177658,196.999847 104.355927,197.000336 104.801285,197.013931 
z"/>
<path fill="#912ECF" opacity="1.000000" stroke="none" 
	d="
M101.815880,202.291962 
	C102.017441,205.712112 101.977821,209.411163 101.872704,213.569031 
	C101.729698,210.208862 101.652199,206.389847 101.815880,202.291962 
z"/>
<path fill="#912ECF" opacity="1.000000" stroke="none" 
	d="
M102.613708,200.228821 
	C102.726677,200.607758 102.668564,201.205566 102.320190,201.923233 
	C102.167503,201.511292 102.305061,200.979477 102.613708,200.228821 
z"/>
<path fill="#9033CB" opacity="1.000000" stroke="none" 
	d="
M135.025726,207.211151 
	C136.190338,202.018799 139.058136,198.931976 144.098633,200.225296 
	C146.646576,200.879074 149.757355,203.025833 150.743881,205.306366 
	C152.760544,209.968277 149.422348,215.291260 144.701233,215.851608 
	C140.491028,216.351334 134.824402,214.392593 135.025726,207.211151 
M143.979126,212.483658 
	C144.565002,212.216110 145.482651,212.095901 145.678436,211.655090 
	C146.461685,209.891571 148.057755,207.401749 147.421066,206.348267 
	C146.452805,204.746140 143.879105,204.114288 141.987259,203.070343 
	C140.983856,204.914932 139.065002,206.856750 139.247513,208.575409 
	C139.413315,210.136642 141.865082,211.455139 143.979126,212.483658 
z"/>
<path fill="#000000" opacity="1.000000" stroke="none" 
	d="
M143.644104,212.682144 
	C141.865082,211.455139 139.413315,210.136642 139.247513,208.575409 
	C139.065002,206.856750 140.983856,204.914932 141.987259,203.070343 
	C143.879105,204.114288 146.452805,204.746140 147.421066,206.348267 
	C148.057755,207.401749 146.461685,209.891571 145.678436,211.655090 
	C145.482651,212.095901 144.565002,212.216110 143.644104,212.682144 
z"/>
</svg>